<svg height="256" viewBox="0 0 256 256" width="256" xmlns="http://www.w3.org/2000/svg"><g fill="none" fill-rule="evenodd"><path d="m0 0h256v256h-256z" fill="#004162"/><path d="m231.618446 32.7490716c2.920457-6.2231778.90086-7.1332754-3.161934-3.9838018-7.855906 6.0897891-14.167398 13.2711767-19.908152 22.4752916-21.351832 34.232808-32.12359 62.8134456-47.849217 109.6568246-.770192 2.293826-2.977732 1.778709-3.73267 0-9.157117-21.579599-19.195811-59.350523-23.070086-71.8441264-1.708757-5.5104265-8.365626-4.6703364-12.951668 0-20.686691 21.0670744-42.2106357 54.6398534-55.7367817 83.8750464-2.2173255 4.792778-3.8837734 2.389763-5.1320263 0-6.9901589-13.382958-10.619504-27.095499-16.4814288-30.036967-15.7204463-7.888089 5.3795471 56.939442 18.026131 76.489687 2.2262477 3.441892 6.8399196 3.766001 8.5967413-.68423 12.5688739-31.838148 26.9708404-61.757571 44.4314155-90.750475 5.714563-9.489043 8.705535-12.000382 10.793056-1.080363 5.576412 29.169796 20.546526 71.63929 33.008908 91.605835 2.09817 3.361801 7.714877 3.150914 8.933197-1.199635 17.599589-62.856949 37.386859-127.3185961 64.234515-184.5230864z" fill="#fff"/></g></svg>